<svg xmlns="http://www.w3.org/2000/svg" width="24" height="24" role="img" aria-label="CyrusPaulson" viewBox="0 0 24 24" fill="currentColor">
  <path d="m 12.008233,0 -0.11425,0.14453066 c -0.26294,0.33275957 -0.97185,0.99194894 -1.29477,1.20400204 -0.8491204,0.5575892 -2.2155004,1.0580916 -3.4710304,1.2713801 -1.03287,0.1754616 -2.54269,0.2664612 -3.75306,0.2261988 -0.34403,-0.011444 -0.63923,-0.00964 -0.65601,0.004 -0.0168,0.013636 -0.0239,2.3686576 -0.0157,5.2333833 0.0162,5.6657231 0.0104,5.5016971 0.23619,6.6169371 0.26373,1.302511 0.86594,2.589872 1.70868,3.65258 0.34789,0.438698 1.23466,1.314648 1.73511,1.713932 0.58206,0.464408 1.54598,1.129736 2.73504,1.887931 1.5092304,0.962344 2.1084604,1.387167 2.6915904,1.908067 0.0834,0.0745 0.16537,0.136186 0.18214,0.137053 0.0168,8.67e-4 0.14504,-0.09702 0.28507,-0.217535 0.56549,-0.486707 1.16543,-0.900454 3.00819,-2.074444 0.74233,-0.472929 1.82938,-1.240713 2.37438,-1.677057 0.51114,-0.409227 1.32255,-1.207297 1.68669,-1.658992 1.06217,-1.317552 1.60931,-2.615979 1.87068,-4.438983 0.058,-0.404407 0.0661,-1.004674 0.0786,-5.7681909 0.0113,-4.3279699 0.005,-5.3167836 -0.0351,-5.3166066 -0.0269,1.171e-4 -0.64609,-0.00643 -1.37585,-0.014512 -1.08448,-0.012013 -1.43417,-0.029407 -1.91444,-0.095367 -2.1326,-0.2928895 -3.70036,-0.7841397 -4.65526,-1.4587069 -0.37124,-0.2622501 -0.85601,-0.71299033 -1.10967,-1.03177942 z m -0.007,1.4169472 0.18873,0.1685947 c 0.69949,0.6252452 1.54097,1.1040843 2.38742,1.3585279 1.90349,0.5721889 3.61405,0.8500496 5.24101,0.8512639 l 0.50231,3.68e-4 0.009,2.5115148 c 0.0231,6.5373555 0.0183,7.0043695 -0.077,7.6412385 -0.1428,0.95392 -0.34992,1.642073 -0.7094,2.357284 -0.64014,1.273607 -1.78663,2.534943 -3.29777,3.628073 -0.56308,0.407322 -1.59843,1.095662 -2.65479,1.76502 -0.48016,0.304257 -1.03965,0.673911 -1.24332,0.821427 -0.20366,0.147516 -0.37375,0.267066 -0.37798,0.265664 -0.004,-0.0014 -0.11586,-0.09381 -0.24804,-0.205319 -0.13218,-0.111504 -0.56361,-0.413197 -0.9587,-0.670381 -3.3548904,-2.183832 -4.0383104,-2.683711 -4.8263004,-3.530334 -1.27951,-1.374712 -1.9447,-2.713699 -2.16033,-4.348577 -0.12735,-0.965551 -0.13627,-1.422874 -0.11366,-5.8001783 0.0123,-2.3873603 0.0279,-4.3592554 0.0346,-4.3819708 0.008,-0.027377 0.31697,-0.049676 0.91613,-0.06612 1.74577,-0.04791 2.92805,-0.2226935 4.23996,-0.6269159 C 10.104613,2.7705108 11.057083,2.2731284 11.754073,1.6411474 Z m 1.02186,3.8804088 c -1.37203,-0.00466 -1.54038,0.012749 -2.33574,0.2412298 -1.1434004,0.3284644 -1.9871504,0.8091136 -2.7252004,1.5525188 -0.88153,0.887922 -1.47139,1.9996499 -1.68335,3.1726384 -0.13099,0.724919 -0.14191,1.920886 -0.0237,2.593998 0.14218,0.809551 0.48823,1.629002 0.97573,2.310785 0.47387,0.662703 1.21948,1.33786 1.80789,1.637002 0.45508,0.231355 1.3006104,0.516156 1.5486704,0.521627 l 0.10425,0.0023 v -0.544729 -0.544657 l -0.25566,-0.147195 c -0.15933,-0.09172 -0.40664,-0.297084 -0.6564604,-0.545173 -0.59175,-0.587646 -0.99496,-1.239803 -1.24228,-2.009212 -0.20368,-0.633605 -0.21495,-0.733195 -0.21495,-1.895483 0,-0.990865 0.007,-1.114767 0.089,-1.49447 0.25664,-1.19401 0.75754,-2.1663347 1.50565,-2.9227449 0.6688504,-0.676275 1.3567604,-0.9936814 2.3581004,-1.0880515 0.56733,-0.053467 0.90538,-0.013887 1.55015,0.1815518 0.8043,0.243794 1.39653,0.6212578 2.23608,1.4250919 0.14894,0.1426064 0.29821,0.2592959 0.33171,0.2592959 0.0546,0 0.0609,-0.1213017 0.0609,-1.1761618 v -1.176088 l -0.0925,-0.03517 c -0.19428,-0.073868 -1.08533,-0.2262991 -1.57554,-0.2695144 -0.28148,-0.024814 -1.07474,-0.047049 -1.7628,-0.049386 z m 0.10425,3.1318413 c -2.34937,-0.013581 -2.28902,-0.018881 -2.07193,0.1839206 0.15346,0.1433527 0.27105,0.3744213 0.31565,0.6201042 0.0276,0.1519053 0.0406,1.5674489 0.0402,4.3596099 -7e-4,4.400576 -0.002,4.432059 -0.18214,4.784614 -0.0411,0.0804 -0.14473,0.225577 -0.23027,0.322602 -0.0855,0.09703 -0.15557,0.195118 -0.15557,0.21798 0,0.02941 0.41049,0.04154 1.40266,0.04154 1.02917,0 1.40266,-0.01158 1.40266,-0.04346 0,-0.0239 -0.0773,-0.126073 -0.17178,-0.227087 -0.18796,-0.200946 -0.28813,-0.401484 -0.354,-0.708586 -0.0283,-0.131898 -0.0429,-0.783569 -0.0429,-1.917622 v -1.717781 l 0.27485,-0.02051 c 0.15116,-0.01127 0.3772,-0.01406 0.5023,-0.0062 0.61286,0.03841 1.60117,-0.117084 2.17603,-0.342372 0.76017,-0.297909 1.39845,-1.022924 1.6427,-1.865791 0.0751,-0.259054 0.0856,-0.378073 0.0829,-0.941004 -0.003,-0.591175 -0.0113,-0.669806 -0.10381,-0.950703 -0.1251,-0.3799414 -0.40434,-0.7881247 -0.70007,-1.0233385 -0.27282,-0.2169924 -0.87181,-0.5121441 -1.31603,-0.6485368 l -0.34108,-0.1047923 z m -0.0284,0.6928134 0.5876,0.00311 c 0.66743,0.0035 0.90919,0.051892 1.33898,0.2683296 0.6941,0.3495467 0.97172,0.8789197 0.97291,1.8549077 8.3e-4,0.673977 -0.11881,1.102611 -0.41959,1.502911 -0.27436,0.365129 -0.8306,0.69448 -1.36157,0.806172 -0.33923,0.07136 -1.09377,0.07775 -1.11989,0.0095 -0.01,-0.02606 -0.0137,-1.036829 -0.008,-2.246147 z m 3.29155,6.5521503 c -0.0443,-0.0015 -0.20063,0.06734 -0.36229,0.160598 -0.54001,0.311528 -1.19816,0.612687 -1.70342,0.779369 l -0.4866,0.160524 v 0.391092 c 0,0.388496 6.2e-4,0.391166 0.0917,0.391166 0.0505,0 0.29536,-0.05861 0.54422,-0.130241 0.75689,-0.217857 1.54812,-0.574732 1.86453,-0.840972 0.11489,-0.09667 0.11528,-0.09839 0.11528,-0.492899 0,-0.314506 -0.0116,-0.400276 -0.0561,-0.417379 -0.002,-7.45e-4 -0.004,-0.0012 -0.007,-0.0013 z" />
</svg>